<svg xmlns="http://www.w3.org/2000/svg" xmlns:xlink="http://www.w3.org/1999/xlink" xmlns:fi="http://pattern.flaticon.com/" x="0" y="0" width="700" height="350" viewBox="0 0 700 350"><rect x="0px" y="0px" width="100%" height="100%" opacity="0" fill="#ffffff"/><defs><g transform="matrix(0.13896609842777252 0 0 0.13896609842777252 184.99999796436396 288)" id="L1_0"><path d="M215.88,85.12C153.556,85.164,103.044,135.676,103,198c0.557,40.682,20.351,78.696,53.36,102.48V382    c0.027,0.932,0.216,1.853,0.56,2.72v0.64c0.138,0.33,0.299,0.651,0.48,0.96l28.16,41.92c1.49,2.205,3.979,3.524,6.64,3.52h46.56    c2.661,0.004,5.15-1.315,6.64-3.52l28.16-41.92c0.181-0.309,0.342-0.63,0.48-0.96v-0.64c0.344-0.867,0.533-1.788,0.56-2.72v-81.52    c33.01-23.784,52.803-61.798,53.36-102.48C327.918,135.987,277.891,85.603,215.88,85.12z M234.92,416h-38.08l-17.44-25.92h72.88    L234.92,416z M172.44,374.08v-21.2h86.88l0.08,21.2H172.44z M263,289.52l0,0.24c-2.259,1.487-3.613,4.015-3.6,6.72v40.64h-86.96    V296c0.013-2.705-1.341-5.233-3.6-6.72c-30.628-20.467-49.233-54.687-49.76-91.52c1.537-53.483,46.14-95.594,99.623-94.057    c51.323,1.475,92.582,42.734,94.057,94.057C312.312,234.679,293.697,269.005,263,289.52z" fill="#ffffff"/><path d="M219.08,121.36c-4.418,0-8,3.582-8,8s3.582,8,8,8c33.251,0.044,60.196,26.989,60.24,60.24c0,4.418,3.582,8,8,8    s8-3.582,8-8C295.276,155.512,261.168,121.404,219.08,121.36z" fill="#ffffff"/><path d="M81.48,189.6h-57.6c-4.418,0-8,3.582-8,8s3.582,8,8,8h57.6c4.418,0,8-3.582,8-8c0,0,0,0,0,0    C89.48,193.182,85.898,189.6,81.48,189.6z" fill="#ffffff"/><path d="M407.88,189.6h-57.6c-4.418,0-8,3.582-8,8s3.582,8,8,8h57.6c4.418,0,8-3.582,8-8S412.298,189.6,407.88,189.6z" fill="#ffffff"/><path d="M127.313,287.12c-2.874-3.356-7.924-3.747-11.28-0.873c-0.313,0.268-0.605,0.56-0.873,0.873v-0.16L74.28,328    c-3.356,2.874-3.747,7.924-0.873,11.28c2.874,3.356,7.924,3.747,11.28,0.873c0.313-0.268,0.605-0.56,0.873-0.873l40.88-40.88    C129.796,295.526,130.187,290.476,127.313,287.12z" fill="#ffffff"/><path d="M356.607,56c-2.995-2.565-7.412-2.565-10.407,0l-40.88,40.88c-3.137,3.111-3.158,8.177-0.047,11.314    c1.513,1.526,3.577,2.379,5.727,2.366l-0.08-0.08c2.126,0.012,4.17-0.823,5.68-2.32l40.88-40.88    C360.354,63.924,359.963,58.874,356.607,56z" fill="#ffffff"/><path d="M359.067,329.609c-0.45-0.609-0.984-1.151-1.587-1.609l-40.88-41.04c-2.874-3.356-7.924-3.747-11.28-0.873    c-3.356,2.874-3.747,7.924-0.873,11.28c0.268,0.313,0.56,0.605,0.873,0.873l40.88,40.88c2.626,3.553,7.636,4.304,11.189,1.678    S361.693,333.162,359.067,329.609z" fill="#ffffff"/><path d="M126.44,96.88L85.56,56c-3.356-2.874-8.406-2.483-11.28,0.873c-2.565,2.995-2.565,7.412,0,10.407l40.88,40.88    c3.356,2.874,8.406,2.483,11.28-0.873C129.005,104.292,129.005,99.875,126.44,96.88z" fill="#ffffff"/><path d="M215.88,0c-4.418,0-8,3.582-8,8v57.84c-0.133,4.416,3.34,8.104,7.756,8.236c0.081,0.002,0.162,0.004,0.244,0.004    c4.418,0,8-3.582,8-8V8C223.88,3.582,220.298,0,215.88,0z" fill="#ffffff"/></g><g transform="matrix(0.1503608673810959 0 0 0.1503608673810959 190 89.9999993575891)" id="L1_1"><path d="M315.76,100.72H16v-61.2c0-0.486,0.394-0.88,0.88-0.88h91.04v32.88c0,4.418,3.582,8,8,8s8-3.582,8-8V38.64h99.6    c4.418,0,8-3.582,8-8s-3.582-8-8-8H16.8C7.509,22.684,0,30.229,0,39.52v320c0,9.323,7.557,16.88,16.88,16.88h68.08    c4.418,0,8-3.582,8-8s-3.582-8-8-8H16.8c-0.455-0.042-0.802-0.424-0.8-0.88V227.44h205.12c4.418,0,8-3.582,8-8s-3.582-8-8-8    h-90.56v-56.72c0-4.418-3.582-8-8-8h-56c-4.418,0-8,3.582-8,8s3.582,8,8,8h48v48.8H16v-94.8h186v51.76c0,4.418,3.582,8,8,8    s8-3.582,8-8v-51.76h89.76v156.96c0,4.418,3.582,8,8,8s8-3.582,8-8V108.72C323.76,104.302,320.178,100.72,315.76,100.72z" fill="#ffffff"/><path d="M382.24,22.64h-89.68c-4.418,0-8,3.582-8,8s3.582,8,8,8h89.68c0.486,0,0.88,0.394,0.88,0.88v320    c0,0.486-0.394,0.88-0.88,0.88H158.8v-78.72h20.8c4.418,0,8-3.582,8-8s-3.582-8-8-8h-98c-4.418,0-8,3.582-8,8s3.582,8,8,8h61.2    v86.72c0,4.418,3.582,8,8,8h231.44c9.291-0.044,16.8-7.589,16.8-16.88v-320C399.04,30.229,391.531,22.684,382.24,22.64z" fill="#ffffff"/><path d="M268.48,167.52c-4.418,0-8,3.582-8,8h-0.32v129.52h-68.64c-4.418,0-8,3.582-8,8s3.582,8,8,8h76.96c4.418,0,8-3.582,8-8    V175.52C276.48,171.102,272.898,167.52,268.48,167.52z" fill="#ffffff"/></g><g transform="matrix(0.13313068449497223 0 0 0.13313068449497223 -16 197.99999739979148)" id="L1_2"><path d="M154.912,209.5c1.17,0.935,2.232,1.998,3.168,3.168c2.765,3.446,7.8,3.999,11.246,1.234    c1.902-1.526,3.004-3.836,2.994-6.274v-60.4c0-4.418-3.581-8-8-8c-0.027,0-0.054,0-0.08,0H119.6c1.852-4.407,2.804-9.14,2.8-13.92    c-0.941-20.037-17.947-35.517-37.984-34.576c-18.719,0.879-33.697,15.856-34.576,34.576c-0.004,4.78,0.948,9.513,2.8,13.92H8    c-4.418,0-8,3.582-8,8v60.48c-0.019,4.418,3.548,8.015,7.966,8.034c2.438,0.01,4.748-1.092,6.274-2.994    c6.981-8.787,19.763-10.251,28.55-3.27s10.251,19.763,3.27,28.55s-19.763,10.251-28.55,3.27c-1.211-0.962-2.308-2.059-3.27-3.27    c-2.765-3.446-7.8-3.999-11.246-1.234C1.092,238.32-0.01,240.63,0,243.068v60.48c0,4.418,3.582,8,8,8h43.92    c-6.691,18.91,3.215,39.664,22.125,46.355c18.91,6.691,39.664-3.215,46.355-22.125c2.773-7.838,2.773-16.391,0-24.229h43.92    c4.418,0,8-3.582,8-8v-60.56c0.019-4.418-3.548-8.015-7.966-8.034c-2.438-0.01-4.748,1.092-6.274,2.994    c-6.981,8.73-19.717,10.149-28.448,3.168c-8.73-6.981-10.149-19.717-3.168-28.448C133.445,203.938,146.182,202.52,154.912,209.5z     M138.912,261.628c1.135,0.053,2.273,0.053,3.408,0c4.781,0.011,9.515-0.941,13.92-2.8v36.64H106    c-4.418,0.018-7.985,3.615-7.966,8.033c0.009,2.122,0.86,4.153,2.366,5.647c7.984,7.887,8.063,20.752,0.176,28.736    c-7.887,7.984-20.752,8.063-28.736,0.176c-7.984-7.887-8.063-20.752-0.176-28.736c0.058-0.059,0.117-0.118,0.176-0.176    c3.137-3.111,3.158-8.177,0.047-11.314c-1.494-1.506-3.525-2.357-5.646-2.366H16v-36.64c4.406,1.857,9.139,2.809,13.92,2.8    c20.037-0.941,35.517-17.947,34.576-37.984c-0.879-18.719-15.856-33.697-34.576-34.576c-4.781-0.009-9.514,0.944-13.92,2.8v-36.64    h52.48c4.417-0.112,7.906-3.784,7.794-8.2c-0.06-2.356-1.155-4.566-2.994-6.04c-8.787-6.981-10.251-19.763-3.27-28.55    s19.763-10.251,28.55-3.27c8.787,6.981,10.251,19.763,3.27,28.55c-0.962,1.211-2.059,2.308-3.27,3.27    c-3.446,2.765-3.999,7.8-1.234,11.246c1.526,1.902,3.836,3.004,6.274,2.994h52.48l0.16,36.64c-4.405-1.859-9.139-2.811-13.92-2.8    c-20.037-0.941-37.043,14.539-37.984,34.576C103.395,243.681,118.875,260.687,138.912,261.628z" fill="#ffffff"/><g><path d="M426.469,190.188c-3.902-1.38-8.01-2.084-12.149-2.08c-4.116-0.001-8.201,0.703-12.08,2.08v-43.92c0-4.418-3.582-8-8-8     h-60.48c-4.418,0.035-7.971,3.646-7.936,8.064c0.019,2.36,1.079,4.591,2.896,6.096c8.804,6.959,10.301,19.737,3.342,28.542     c-6.959,8.804-19.737,10.301-28.542,3.342s-10.301-19.737-3.342-28.542c0.98-1.24,2.102-2.362,3.342-3.342     c3.446-2.765,3.999-7.8,1.234-11.246c-1.526-1.902-3.836-3.004-6.274-2.994H238c-4.418,0-8,3.582-8,8v44.64     c-4.406-1.856-9.139-2.809-13.92-2.8c-20.037,0.941-35.517,17.947-34.576,37.984c0.879,18.719,15.856,33.696,34.576,34.576     c4.781,0.006,9.514-0.946,13.92-2.8v44.64c0,4.418,3.582,8,8,8h60.64c4.418-0.001,7.999-3.584,7.998-8.002     c-0.001-2.823-1.49-5.437-3.918-6.878c-8.444-7.392-9.297-20.23-1.905-28.674c7.392-8.444,20.23-9.297,28.674-1.905     c8.444,7.392,9.297,20.229,1.905,28.674c-0.812,0.928-1.707,1.78-2.674,2.545c-3.446,2.765-3.999,7.8-1.234,11.246     c1.526,1.902,3.836,3.004,6.274,2.994h60.48c4.418,0,8-3.582,8-8v-43.76c18.91,6.691,39.664-3.215,46.355-22.125     S445.38,196.879,426.469,190.188z M428.447,238.989c-3.771,3.767-8.877,5.894-14.207,5.92l0.08-0.24     c-5.411,0.013-10.6-2.149-14.4-6c-3.111-3.137-8.177-3.158-11.314-0.047c-1.506,1.494-2.357,3.525-2.366,5.646v50.24h-36.72     c1.901-4.451,2.88-9.24,2.88-14.08c-0.941-20.037-17.947-35.517-37.984-34.576c-18.719,0.879-33.697,15.856-34.576,34.576     c-0.004,4.78,0.948,9.513,2.8,13.92H246v-52.24c0.019-4.418-3.548-8.015-7.966-8.034c-2.438-0.01-4.748,1.092-6.274,2.994     c-6.981,8.787-19.763,10.251-28.55,3.27c-8.787-6.981-10.251-19.763-3.27-28.55s19.763-10.251,28.55-3.27     c1.211,0.962,2.308,2.059,3.27,3.27c2.765,3.446,7.8,3.999,11.246,1.234c1.902-1.526,3.004-3.836,2.994-6.274v-52.48h36.64     c-1.911,4.476-2.891,9.293-2.88,14.16c-0.941,20.037,14.539,37.043,34.576,37.984s37.043-14.539,37.984-34.576     c0.053-1.135,0.053-2.273,0-3.408c0.004-4.78-0.948-9.513-2.8-13.92h36.64v50.24c0.019,4.418,3.615,7.985,8.034,7.966     c2.121-0.009,4.153-0.86,5.646-2.366c7.909-7.9,20.724-7.892,28.624,0.017C436.363,218.274,436.356,231.089,428.447,238.989z" fill="#ffffff"/><path d="M414.32,188.108 414.32,188.108 414.32,188.108z" fill="#ffffff"/></g></g><path d="M342.804,129.011l69.12-69.12c3.139-3.109,3.164-8.174,0.055-11.314c-1.437-1.451-3.374-2.298-5.415-2.366l0.24,0.48    l-37.6-1.28l-1.28-37.6c-0.149-4.416-3.849-7.875-8.265-7.726c-2.041,0.069-3.979,0.915-5.415,2.366l-69.04,68.72    c-1.558,1.568-2.398,3.711-2.32,5.92v8C200.799,28.544,88.417,49.247,31.87,131.331S-3.975,325.798,78.11,382.345    c82.084,56.547,194.467,35.844,251.014-46.24c42.471-61.651,42.471-143.122,0-204.774h8    C339.25,131.343,341.294,130.508,342.804,129.011z M345.204,233.811c0.12,90.928-73.495,164.737-164.423,164.857    c-90.928,0.12-164.737-73.495-164.857-164.423c-0.12-90.928,73.495-164.737,164.423-164.857    c37.649-0.05,74.177,12.806,103.497,36.423l0.4,13.36l-32,32c-45.521-39.897-114.766-35.337-154.663,10.184    c-39.897,45.521-35.337,114.766,10.184,154.663c45.521,39.897,114.766,35.337,154.663-10.184    c35.846-40.9,36.279-101.899,1.016-143.303l32-32l13.2,0.48C332.172,160.12,345.068,196.383,345.204,233.811z M175.444,239.171    c3.12,3.102,8.16,3.102,11.28,0l16-16c1.559,3.218,2.379,6.744,2.4,10.32c0,13.255-10.745,24-24,24s-24-10.745-24-24    s10.745-24,24-24c3.576,0.021,7.102,0.841,10.32,2.4l-16,16C172.342,231.011,172.342,236.051,175.444,239.171z M203.124,200.131    c-18.422-12.192-43.24-7.142-55.432,11.28c-12.192,18.422-7.142,43.24,11.28,55.432c18.422,12.192,43.24,7.142,55.432-11.28    c8.858-13.385,8.858-30.768,0-44.152l37.92-37.92c33.243,39.472,28.192,98.419-11.28,131.662    c-39.472,33.243-98.419,28.192-131.662-11.28c-33.243-39.472-28.192-98.419,11.28-131.662c34.782-29.292,85.6-29.292,120.382,0    L203.124,200.131z M300.404,114.211l-1.12-34.08l53.6-53.6l0.88,26.64c0,4.418,3.582,8,8,8l26.64,0.88l-53.92,53.28    L300.404,114.211z" transform="matrix(0.1448243409395218 0 0 0.1448243409395218 -11 3)" id="L1_3" fill="#ffffff"/></defs><g fi:class="KUsePattern"><pattern id="pattern_L1_0" width="350" height="350" patternUnits="userSpaceOnUse"><use xlink:href="#L1_0" x="-350" y="-350"/><use xlink:href="#L1_0" x="0" y="-350"/><use xlink:href="#L1_0" x="350" y="-350"/><use xlink:href="#L1_0" x="-350" y="0"/><use xlink:href="#L1_0" x="0" y="0"/><use xlink:href="#L1_0" x="350" y="0"/><use xlink:href="#L1_0" x="-350" y="350"/><use xlink:href="#L1_0" x="0" y="350"/><use xlink:href="#L1_0" x="350" y="350"/></pattern><rect x="0" y="0" width="100%" height="100%" fill="url(#pattern_L1_0)"/></g><g fi:class="KUsePattern"><pattern id="pattern_L1_1" width="350" height="350" patternUnits="userSpaceOnUse"><use xlink:href="#L1_1" x="-350" y="-350"/><use xlink:href="#L1_1" x="0" y="-350"/><use xlink:href="#L1_1" x="350" y="-350"/><use xlink:href="#L1_1" x="-350" y="0"/><use xlink:href="#L1_1" x="0" y="0"/><use xlink:href="#L1_1" x="350" y="0"/><use xlink:href="#L1_1" x="-350" y="350"/><use xlink:href="#L1_1" x="0" y="350"/><use xlink:href="#L1_1" x="350" y="350"/></pattern><rect x="0" y="0" width="100%" height="100%" fill="url(#pattern_L1_1)"/></g><g fi:class="KUsePattern" opacity="1"><pattern id="pattern_L1_2" width="350" height="350" patternUnits="userSpaceOnUse"><use xlink:href="#L1_2" x="-350" y="-350"/><use xlink:href="#L1_2" x="0" y="-350"/><use xlink:href="#L1_2" x="350" y="-350"/><use xlink:href="#L1_2" x="-350" y="0"/><use xlink:href="#L1_2" x="0" y="0"/><use xlink:href="#L1_2" x="350" y="0"/><use xlink:href="#L1_2" x="-350" y="350"/><use xlink:href="#L1_2" x="0" y="350"/><use xlink:href="#L1_2" x="350" y="350"/></pattern><rect x="0" y="0" width="100%" height="100%" fill="url(#pattern_L1_2)"/></g><g fi:class="KUsePattern"><pattern id="pattern_L1_3" width="350" height="350" patternUnits="userSpaceOnUse"><use xlink:href="#L1_3" x="-350" y="-350"/><use xlink:href="#L1_3" x="0" y="-350"/><use xlink:href="#L1_3" x="350" y="-350"/><use xlink:href="#L1_3" x="-350" y="0"/><use xlink:href="#L1_3" x="0" y="0"/><use xlink:href="#L1_3" x="350" y="0"/><use xlink:href="#L1_3" x="-350" y="350"/><use xlink:href="#L1_3" x="0" y="350"/><use xlink:href="#L1_3" x="350" y="350"/></pattern><rect x="0" y="0" width="100%" height="100%" fill="url(#pattern_L1_3)"/></g></svg>